<?xml version="1.0" encoding="UTF-8"?><svg id="Dot" xmlns="http://www.w3.org/2000/svg" viewBox="0 0 1080 336.82"><defs><style>.cls-1{fill:#337985;}.cls-2{fill:#5fcec1;}</style></defs><path class="cls-1" d="M1063.58,19.31c-.02-.11-.06-.21-.09-.32-.04-.12-.06-.25-.11-.37-.05-.13-.13-.24-.19-.36-.05-.09-.09-.18-.15-.27-.27-.4-.62-.75-1.02-1.02-.09-.06-.18-.1-.27-.15-.12-.07-.24-.14-.36-.19-.12-.05-.24-.08-.37-.11-.11-.03-.21-.07-.32-.09-.24-.05-.48-.07-.72-.07H20.03c-.24,0-.48.03-.72.07-.11.02-.21.06-.32.09-.12.04-.25.06-.37.11-.13.05-.24.12-.36.19-.09.05-.19.09-.28.15-.4.27-.75.62-1.02,1.02-.06.09-.1.18-.15.27-.07.12-.14.23-.19.36-.05.12-.08.24-.11.37-.03.11-.07.21-.09.32-.05.24-.07.48-.07.72v74.28c0,2.03,1.65,3.68,3.68,3.68h74.28c38.93,0,70.6,31.67,70.6,70.6v148.56c0,.24.03.48.07.72.02.11.06.21.09.32.04.12.06.25.11.37.05.13.12.24.19.36.05.09.09.19.15.27.27.4.62.75,1.02,1.02.09.06.18.1.28.15.12.07.23.14.36.19.12.05.25.08.37.11.11.03.21.07.32.09.24.05.48.07.72.07h148.56c.24,0,.48-.03.72-.07.11-.02.21-.06.32-.09.12-.04.25-.06.37-.11.13-.05.24-.12.36-.19.09-.05.19-.09.28-.15.4-.27.75-.62,1.02-1.02.06-.09.1-.18.15-.27.07-.12.14-.23.19-.36.05-.12.08-.24.11-.37.03-.11.07-.21.09-.32.05-.24.07-.48.07-.72v-148.56c0-38.93,31.67-70.6,70.6-70.6s70.6,31.67,70.6,70.6v148.56s0,.07.01.1c0,.21.02.41.06.62.02.12.07.24.11.36.03.11.06.22.1.33.06.14.13.26.21.39.05.08.08.17.13.24.27.41.62.75,1.02,1.02.08.06.17.09.26.14.12.07.24.14.37.2.12.05.24.08.36.11.11.03.21.07.33.1.23.05.47.07.71.07,0,0,0,0,0,0h148.56c.24,0,.48-.03.72-.07.11-.02.21-.06.32-.09.12-.04.25-.07.37-.11.13-.05.24-.12.36-.19.09-.05.19-.09.27-.15.4-.27.75-.62,1.02-1.02.06-.09.1-.18.15-.27.07-.12.14-.24.19-.36.05-.12.08-.24.11-.37.03-.11.07-.21.09-.32.05-.24.07-.48.07-.72v-148.56c0-38.93,31.67-70.6,70.6-70.6s70.6,31.67,70.6,70.6v148.56c0,.07.02.13.02.2,0,.17.02.35.05.52.03.14.08.26.12.4.03.1.05.2.09.29.06.15.15.29.23.43.04.07.07.14.11.21.27.41.62.76,1.03,1.03.08.05.16.08.24.13.13.07.26.15.4.21.11.05.23.07.35.11.11.03.22.08.34.1.23.05.47.07.7.07,0,0,.01,0,.02,0h148.56c.24,0,.48-.03.72-.07.11-.02.21-.06.32-.09.12-.04.25-.07.37-.11.13-.05.24-.12.36-.19.09-.05.19-.09.27-.15.4-.27.75-.62,1.02-1.02.06-.09.1-.18.15-.27.07-.12.14-.24.19-.36.05-.12.08-.24.11-.37.03-.11.07-.21.09-.32.05-.24.07-.48.07-.72v-148.56c0-38.93,31.67-70.6,70.6-70.6h74.28c2.03,0,3.68-1.65,3.68-3.68V20.03c0-.24-.03-.48-.07-.72ZM23.71,28.92l61.71,61.71H23.71V28.92ZM28.92,23.71h130.79l-65.4,65.4L28.92,23.71ZM1056.29,28.92v61.71h-61.71l61.71-61.71ZM985.69,89.11l-65.4-65.4h130.79l-65.4,65.4ZM902.52,23.71l-65.4,65.4-65.4-65.4h130.79ZM753.96,23.71l-65.4,65.4-65.4-65.4h130.79ZM605.4,23.71l-65.4,65.4-65.4-65.4h130.79ZM456.83,23.71l-65.4,65.4-65.4-65.4h130.79ZM308.27,23.71l-65.4,65.4L177.48,23.71h130.79ZM102.73,91.09L168.59,25.24l69.08,69.08-65.86,65.86c-3.92-36.27-32.8-65.16-69.08-69.08ZM242.87,248.08l65.4,65.4h-130.79l65.4-65.4ZM172.27,308.27v-130.79l65.4,65.4-65.4,65.4ZM248.08,242.87l65.4-65.4v130.79l-65.4-65.4ZM242.87,237.67l-69.08-69.08,69.08-69.08,69.08,69.08-69.08,69.08ZM313.94,160.17l-65.86-65.86,69.08-69.08,65.86,65.86c-36.27,3.92-65.16,32.8-69.08,69.08ZM399.86,91.09l65.86-65.86,69.08,69.08-65.86,65.86c-3.92-36.27-32.8-65.16-69.08-69.08ZM469.4,177.48l65.4,65.4-65.4,65.4v-130.79ZM540,248.08l65.4,65.4h-130.79l65.4-65.4ZM545.21,242.87l65.4-65.4v130.79l-65.4-65.4ZM540,237.67l-69.08-69.08,69.08-69.08,69.08,69.08-69.08,69.08ZM611.06,160.17l-65.86-65.86,69.08-69.08,65.86,65.86c-36.27,3.92-65.16,32.8-69.08,69.08ZM696.99,91.09l65.86-65.86,69.08,69.08-65.86,65.86c-3.92-36.27-32.8-65.16-69.08-69.08ZM766.52,177.48l65.4,65.4-65.4,65.4v-130.79ZM837.13,248.08l65.4,65.4h-130.79l65.4-65.4ZM842.33,242.87l65.4-65.4v130.79l-65.4-65.4ZM837.13,237.67l-69.08-69.08,69.08-69.08,69.08,69.08-69.08,69.08ZM908.19,160.17l-65.86-65.86,69.08-69.08,65.86,65.86c-36.27,3.92-65.16,32.8-69.08,69.08Z"/><circle class="cls-2" cx="20.03" cy="20.03" r="20.03"/><circle class="cls-2" cx="94.31" cy="94.31" r="20.03"/><circle class="cls-2" cx="168.59" cy="20.03" r="20.03"/><circle class="cls-2" cx="168.59" cy="168.59" r="20.03"/><circle class="cls-2" cx="168.59" cy="317.16" r="20.03"/><circle class="cls-2" cx="242.87" cy="94.31" r="20.03"/><circle class="cls-2" cx="242.87" cy="242.87" r="20.03"/><circle class="cls-2" cx="317.16" cy="20.03" r="20.03"/><circle class="cls-2" cx="317.16" cy="168.59" r="20.03"/><circle class="cls-2" cx="317.16" cy="317.16" r="20.03"/><circle class="cls-2" cx="391.44" cy="94.31" r="20.03"/><circle class="cls-2" cx="465.72" cy="20.03" r="20.03"/><circle class="cls-2" cx="465.72" cy="168.59" r="20.03"/><circle class="cls-2" cx="465.72" cy="316.79" r="20.03"/><circle class="cls-2" cx="540" cy="94.31" r="20.03"/><circle class="cls-2" cx="540" cy="242.87" r="20.03"/><circle class="cls-2" cx="614.28" cy="20.4" r="20.03"/><circle class="cls-2" cx="614.28" cy="168.59" r="20.03"/><circle class="cls-2" cx="614.28" cy="316.79" r="20.03"/><circle class="cls-2" cx="688.56" cy="94.31" r="20.03"/><circle class="cls-2" cx="762.84" cy="20.03" r="20.03"/><circle class="cls-2" cx="762.84" cy="168.59" r="20.03"/><circle class="cls-2" cx="762.84" cy="316.79" r="20.03"/><circle class="cls-2" cx="837.13" cy="94.31" r="20.03"/><circle class="cls-2" cx="837.13" cy="242.87" r="20.03"/><circle class="cls-2" cx="911.41" cy="20.03" r="20.03"/><circle class="cls-2" cx="911.41" cy="168.59" r="20.03"/><circle class="cls-2" cx="911.41" cy="317.16" r="20.03"/><circle class="cls-2" cx="985.69" cy="94.31" r="20.03"/><circle class="cls-2" cx="1059.97" cy="20.03" r="20.03"/></svg>